<svg width="90px" height="90px" viewBox="0 0 90 90" version="1.1" xmlns="http://www.w3.org/2000/svg" xmlns:xlink="http://www.w3.org/1999/xlink">
    <title>baunfire-icon</title>
    <g id="Page-1" stroke="none" stroke-width="1" fill="none" fill-rule="evenodd">
        <g id="baunfire-icon" transform="translate(0.000000, -0.000500)" fill="#1B1B1B">
            <path d="M48.0731,21.433 L41.8701,21.433 L27.1321,61.949 L32.8081,61.949 C34.3481,61.949 35.7171,60.969 36.2151,59.511 L37.8301,54.779 L40.0491,48.121 L45.1701,33.383 L50.1211,48.121 L52.2271,54.779 L53.7961,59.487 C54.2861,60.957 55.6621,61.949 57.2111,61.949 L62.8671,61.949 L48.0731,21.433 Z" id="Fill-1"></path>
            <path d="M45,6.618 C23.836,6.618 6.617,23.836 6.617,44.999 C6.617,66.164 23.836,83.382 45,83.382 C66.164,83.382 83.382,66.164 83.382,44.999 C83.382,23.836 66.164,6.618 45,6.618 M45,90 C20.187,90 0,69.812 0,44.999 C0,20.186 20.187,0 45,0 C69.813,0 90,20.186 90,44.999 C90,69.812 69.813,90 45,90" id="Fill-3"></path>
        </g>
    </g>
</svg>  